HIERARCHY
ROOT Pelvis
{
	OFFSET -0.217368 -24.078917 2.858379
	CHANNELS 6 Xposition Yposition Zposition Zrotation Yrotation Xrotation 
	JOINT Left_hip
	{
		OFFSET 5.858135 -8.228005 -1.766408
		CHANNELS 3 Zrotation Yrotation Xrotation
		JOINT Left_knee
		{
			OFFSET 4.345143 -38.646942 0.803700
			CHANNELS 3 Zrotation Yrotation Xrotation
			JOINT Left_ankle
			{
				OFFSET -1.479033 -42.687447 -3.742800
				CHANNELS 3 Zrotation Yrotation Xrotation
				JOINT Left_foot
				{
					OFFSET 4.105436 -6.028605 12.204244
					CHANNELS 3 Zrotation Yrotation Xrotation
					End Site
					{
						OFFSET 0.000000 0.000000 0.000000
					}
				}
			}
		}
	}
	JOINT Right_hip
	{
		OFFSET -6.030973 -9.051328 -1.354253
		CHANNELS 3 Zrotation Yrotation Xrotation
		JOINT Right_knee
		{
			OFFSET -4.325663 -38.368790 -0.484304
			CHANNELS 3 Zrotation Yrotation Xrotation
			JOINT Right_ankle
			{
				OFFSET 1.905555 -42.004566 -3.456167
				CHANNELS 3 Zrotation Yrotation Xrotation
				JOINT Right_foot
				{
					OFFSET -3.483987 -6.210554 13.032330
					CHANNELS 3 Zrotation Yrotation Xrotation
					End Site
					{
						OFFSET 0.000000 0.000000 0.000000
					}
				}
			}
		}
	}
	JOINT Spine1
	{
		OFFSET 0.443945 12.440353 -3.838522
		CHANNELS 3 Zrotation Yrotation Xrotation
		JOINT Spine2
		{
			OFFSET 0.448844 13.795640 2.682033
			CHANNELS 3 Zrotation Yrotation Xrotation
			JOINT Spine3
			{
				OFFSET -0.226460 5.603239 0.285504
				CHANNELS 3 Zrotation Yrotation Xrotation
				JOINT Neck
				{
					OFFSET -1.339018 21.163553 -3.346758
					CHANNELS 3 Zrotation Yrotation Xrotation
					JOINT Head
					{
						OFFSET 1.011321 8.893734 5.040987
						CHANNELS 3 Zrotation Yrotation Xrotation
						End Site
						{
							OFFSET 0.000000 0.000000 0.000000
						}
					}
				}
				JOINT Left_collar
				{
					OFFSET 7.170247 11.399971 -1.889817
					CHANNELS 3 Zrotation Yrotation Xrotation
					JOINT Left_shoulder
					{
						OFFSET 12.292140 4.520507 -1.904600
						CHANNELS 3 Zrotation Yrotation Xrotation
						JOINT Left_elbow
						{
							OFFSET 25.533188 -1.564902 -2.294648
							CHANNELS 3 Zrotation Yrotation Xrotation
							JOINT Left_wrist
							{
								OFFSET 26.570929 1.269810 -0.737473
								CHANNELS 3 Zrotation Yrotation Xrotation
								JOINT Left_palm
								{
									OFFSET 8.669054 -1.063602 -1.559429
									CHANNELS 3 Zrotation Yrotation Xrotation
									End Site
									{
										OFFSET 0.000000 0.000000 0.000000
									}
								}
							}
						}
					}
				}
				JOINT Right_collar
				{
					OFFSET -8.295364 11.247234 -2.370738
					CHANNELS 3 Zrotation Yrotation Xrotation
					JOINT Right_shoulder
					{
						OFFSET -11.322830 4.685326 -0.847207
						CHANNELS 3 Zrotation Yrotation Xrotation
						JOINT Right_elbow
						{
							OFFSET -26.012751 -1.436928 -3.126872
							CHANNELS 3 Zrotation Yrotation Xrotation
							JOINT Right_wrist
							{
								OFFSET -26.910841 0.679372 -0.602677
								CHANNELS 3 Zrotation Yrotation Xrotation
								JOINT Right_palm
								{
									OFFSET -8.875370 -0.865157 -1.010708
									CHANNELS 3 Zrotation Yrotation Xrotation
									End Site
									{
										OFFSET 0.000000 0.000000 0.000000
									}
								}
							}
						}
					}
				}
			}
		}
	}
}
MOTION
Frames: 9
Frame Time: 0.016667
-0.217368 68.027077 2.858379 1.742878 5.948806 -0.066536 9.117631 -0.149913 -3.548950 -8.177603 2.006465 27.787192 6.971404 14.541388 0.846596 0.000000 0.000000 0.000000 -11.971937 0.168435 -22.541742 5.472835 -0.832350 27.778175 -4.605021 -12.534247 5.040559 0.000000 0.000000 0.000000 2.388603 -0.893533 14.108125 3.250885 -0.003396 -26.946468 -3.207197 -9.178082 25.406638 -0.451458 1.418976 -15.935704 0.000000 0.000000 0.000000 4.307012 -8.535337 2.949624 -0.854649 -32.531365 -1.536546 68.199715 -27.978330 -17.381794 0.000000 0.000000 0.000000 0.000000 0.000000 0.000000 16.315610 -2.459820 -2.878942 35.080743 8.999300 -0.670939 -28.289959 73.294672 -18.249245 0.000000 0.000000 0.000000 0.000000 0.000000 0.000000 
-0.398251 67.697990 2.714260 1.987495 7.458666 0.171042 9.596217 -0.146906 -4.375251 -9.418756 2.619697 30.618968 5.830323 11.833360 -1.566191 0.000000 0.000000 0.000000 -12.749173 0.019088 -23.630166 5.658042 -0.922376 29.748268 -3.370425 -9.810246 4.823219 0.000000 0.000000 0.000000 1.582519 -0.764630 13.708647 4.133686 -0.259886 -25.888683 -3.211431 -8.821542 24.214975 -0.812318 1.615906 -15.695789 0.000000 0.000000 0.000000 5.255409 -8.496389 2.951999 -1.540513 -35.966929 -1.549308 69.053495 -26.312287 -16.567869 0.000000 0.000000 0.000000 0.000000 0.000000 0.000000 17.419053 -0.817927 -2.178694 35.130502 6.182892 -1.408098 -21.605152 71.497454 -12.814320 0.000000 0.000000 0.000000 0.000000 0.000000 0.000000 
-0.603103 67.447289 2.525956 1.999272 8.007029 -0.587226 10.036526 -0.127941 -2.304623 -8.860282 2.343760 29.526169 5.293103 10.700160 -1.581976 0.000000 0.000000 0.000000 -12.485511 0.065523 -23.882936 6.032509 -1.083691 30.919955 -3.480249 -9.814882 3.863057 0.000000 0.000000 0.000000 2.875022 -0.873571 12.845946 3.072065 -0.153710 -23.353445 -3.691823 -7.147001 23.307532 0.184514 1.080639 -16.419015 0.000000 0.000000 0.000000 1.631116 -9.384072 3.187474 1.710111 -36.746736 -2.347504 74.508667 -28.278882 -19.769658 0.000000 0.000000 0.000000 0.000000 0.000000 0.000000 18.332207 0.814480 -1.423600 36.540583 5.204224 -1.721524 -28.593524 71.286391 -17.787136 0.000000 0.000000 0.000000 0.000000 0.000000 0.000000 
-0.721604 67.208260 2.258161 2.686028 9.964184 -0.404488 10.892257 -0.124901 -1.281320 -9.183143 2.413630 28.501256 5.234038 10.485096 -1.973079 0.000000 0.000000 0.000000 -14.340060 -0.300989 -24.588260 7.342134 -1.625569 31.808833 -4.103627 -11.538558 5.453491 0.000000 0.000000 0.000000 2.684061 -0.891383 13.474986 1.953465 0.160861 -24.199504 -3.363496 -7.272011 23.140583 0.240303 1.174414 -18.272750 0.000000 0.000000 0.000000 -1.043398 -7.922820 2.655517 1.661260 -37.382849 -2.384420 78.913738 -33.246864 -25.320924 0.000000 0.000000 0.000000 0.000000 0.000000 0.000000 19.527928 -0.546634 -2.280881 36.599267 4.453508 -1.929364 -20.280035 71.936720 -11.964428 0.000000 0.000000 0.000000 0.000000 0.000000 0.000000 
-0.818957 67.052025 1.793786 2.249819 11.390701 -1.124203 11.482048 -0.139920 0.331995 -8.900273 2.248469 27.314532 5.044669 9.855911 -2.885206 0.000000 0.000000 0.000000 -14.411689 -0.280215 -23.302854 8.600393 -2.078528 30.493922 -5.340725 -14.097274 4.966820 0.000000 0.000000 0.000000 3.243137 -0.931456 13.034489 0.203976 0.557640 -23.257440 -2.838828 -5.803847 23.317783 1.666396 0.331286 -17.700275 0.000000 0.000000 0.000000 -2.584777 -8.934805 2.994713 1.045939 -38.833969 -2.337518 83.166910 -35.530444 -29.202587 0.000000 0.000000 0.000000 0.000000 0.000000 0.000000 20.777406 -0.453402 -2.375144 36.662110 3.497792 -2.193980 -20.071552 71.855597 -11.795379 0.000000 0.000000 0.000000 0.000000 0.000000 0.000000 
-0.939549 66.574364 1.089610 2.262957 14.769996 -0.403046 11.853168 -0.128052 -1.080574 -8.346414 2.056292 27.512129 4.417558 7.156800 -7.145535 0.000000 0.000000 0.000000 -15.220755 -0.451588 -23.995881 9.139944 -2.281988 30.342241 -6.193561 -15.966280 5.564031 0.000000 0.000000 0.000000 2.189277 -0.834734 13.575647 0.295868 0.552269 -23.903471 -2.253302 -5.788254 23.291064 1.370892 0.474019 -17.402571 0.000000 0.000000 0.000000 -3.063287 -8.367491 2.778187 0.013850 -40.391969 -2.166194 87.311623 -37.368111 -32.991680 0.000000 0.000000 0.000000 0.000000 0.000000 0.000000 20.458089 -0.501226 -2.364372 37.544854 3.595651 -2.217487 -9.575143 72.439444 -4.310852 0.000000 0.000000 0.000000 0.000000 0.000000 0.000000 
-1.131425 66.312988 0.262933 1.910320 17.487073 -0.362593 12.695295 -0.102299 -2.497605 -8.423705 2.120845 28.317540 4.577982 7.078226 -8.530214 0.000000 0.000000 0.000000 -15.844704 -0.541146 -23.287836 9.242630 -2.274462 29.344490 -6.427072 -16.405652 5.034964 0.000000 0.000000 0.000000 1.465332 -0.775166 14.179796 0.441027 0.525228 -24.195691 -1.533119 -5.487935 23.045598 0.332902 1.059222 -17.347388 0.000000 0.000000 0.000000 -3.197084 -8.921376 2.982895 -0.699381 -41.322244 -2.020894 88.755802 -38.701806 -35.034727 0.000000 0.000000 0.000000 0.000000 0.000000 0.000000 20.181316 0.306544 -1.888864 37.991655 4.099091 -2.098979 -6.376421 72.046495 -1.983724 0.000000 0.000000 0.000000 0.000000 0.000000 0.000000 
-1.330437 66.096779 -0.638604 1.975080 19.934991 0.859140 13.823891 0.015262 -6.101788 -8.843829 2.343671 29.651368 4.508245 6.853685 -8.664010 0.000000 0.000000 0.000000 -16.552465 -0.704490 -24.026176 9.368333 -2.309328 29.082199 -7.237712 -18.134974 5.751416 0.000000 0.000000 0.000000 0.894586 -0.709813 14.393339 0.415370 0.528807 -24.103481 -1.473829 -5.283766 22.072258 0.313420 1.004363 -16.394350 0.000000 0.000000 0.000000 -2.661275 -9.211727 3.095978 -1.911647 -39.796089 -1.616160 91.388105 -38.444046 -36.329723 0.000000 0.000000 0.000000 0.000000 0.000000 0.000000 19.926826 0.356763 -1.834155 39.860094 5.023170 -1.916249 -2.815548 74.179960 0.588902 0.000000 0.000000 0.000000 0.000000 0.000000 0.000000 
-1.570447 66.189903 -1.600346 1.930780 21.603860 2.207551 14.982111 0.180150 -9.044176 -8.918448 2.366921 29.541549 4.283515 6.664381 -7.611339 0.000000 0.000000 0.000000 -16.636155 -0.759802 -24.862922 9.857105 -2.460104 28.461043 -7.679715 -19.022741 5.214134 0.000000 0.000000 0.000000 1.162252 -0.735419 14.190604 -0.924136 0.859261 -24.527648 -1.044928 -4.431088 22.568871 1.037879 0.638748 -17.087804 0.000000 0.000000 0.000000 -2.651353 -9.017424 3.024423 -2.189423 -41.367771 -1.600852 93.847064 -37.559477 -36.926906 0.000000 0.000000 0.000000 0.000000 0.000000 0.000000 19.574835 -0.180059 -2.087771 39.825496 7.316006 -1.215151 -3.768260 74.615275 -0.123923 0.000000 0.000000 0.000000 0.000000 0.000000 0.000000 
